<svg width="9" height="8" viewBox="0 0 9 8" fill="none" xmlns="http://www.w3.org/2000/svg">
<path d="M0.630781 7.26H2.03078V2.42L2.13078 1.83L1.73078 2.3L0.630781 3.09L0.250781 2.58L2.45078 0.88H2.81078V7.26H4.18078V8H0.630781V7.26ZM8.46 2.59C8.46 2.94333 8.39333 3.30667 8.26 3.68C8.13333 4.04667 7.96333 4.41667 7.75 4.79C7.54333 5.16333 7.31 5.53 7.05 5.89C6.79 6.24333 6.53 6.58 6.27 6.9L5.78 7.33V7.37L6.42 7.26H8.6V8H4.62V7.71C4.76667 7.55667 4.94333 7.36667 5.15 7.14C5.35667 6.91333 5.57 6.66333 5.79 6.39C6.01667 6.11 6.23667 5.81667 6.45 5.51C6.67 5.19667 6.86667 4.88 7.04 4.56C7.22 4.24 7.36333 3.92333 7.47 3.61C7.57667 3.29667 7.63 3 7.63 2.72C7.63 2.39333 7.53667 2.12333 7.35 1.91C7.16333 1.69 6.88 1.58 6.5 1.58C6.24667 1.58 6 1.63333 5.76 1.74C5.52 1.84 5.31333 1.95667 5.14 2.09L4.81 1.52C5.04333 1.32 5.32 1.16333 5.64 1.05C5.96 0.936666 6.30333 0.88 6.67 0.88C6.95667 0.88 7.21 0.923333 7.43 1.01C7.65 1.09 7.83667 1.20667 7.99 1.36C8.14333 1.51333 8.26 1.69667 8.34 1.91C8.42 2.11667 8.46 2.34333 8.46 2.59Z" fill="white"/>
</svg>
