<svg width="16" height="16" viewBox="0 0 16 16" fill="none" xmlns="http://www.w3.org/2000/svg">
<path d="M15.3 2.3H0.6C0.3 2.3 0 2.5 0 2.8C0 3.1 0.3 3.4 0.6 3.4H2.3V15.4C2.3 15.7 2.6 16 2.9 16H13.1C13.4 16 13.7 15.7 13.7 15.4V3.4H15.4C15.7 3.4 16 3.1 16 2.8C16 2.5 15.6 2.3 15.3 2.3ZM12.5 14.8H3.4V3.4H12.5V14.8Z" fill="black"/>
<path d="M6.2 1.2H9.6C9.9 1.2 10.2 0.9 10.2 0.6C10.2 0.3 10 0 9.7 0H6.2C5.9 0 5.7 0.3 5.7 0.6C5.7 0.9 5.9 1.2 6.2 1.2Z" fill="black"/>
<path d="M6.2 12C6.5 12 6.8 11.7 6.8 11.4V5.7C6.8 5.4 6.5 5.1 6.2 5.1C5.9 5.1 5.6 5.4 5.6 5.7V11.4C5.7 11.7 5.9 12 6.2 12Z" fill="black"/>
<path d="M9.7 12C10 12 10.3 11.7 10.3 11.4V5.7C10.3 5.4 10 5.1 9.7 5.1C9.4 5.1 9.1 5.5 9.1 5.7V11.4C9.1 11.7 9.3 12 9.7 12Z" fill="black"/>
</svg>
